<?xml version="1.0" standalone="no"?>
<!DOCTYPE svg PUBLIC "-//W3C//DTD SVG 20010904//EN"
 "http://www.w3.org/TR/2001/REC-SVG-20010904/DTD/svg10.dtd">
<svg version="1.0" xmlns="http://www.w3.org/2000/svg"
 width="300.000000pt" height="303.000000pt" viewBox="0 0 300.000000 303.000000"
 preserveAspectRatio="xMidYMid meet">
<metadata>
Created by potrace 1.10, written by Peter Selinger 2001-2011
</metadata>
<g transform="translate(0.000000,303.000000) scale(0.100000,-0.100000)"
fill="#000000" stroke="none">
<path d="M854 2920 c-11 -4 -33 -22 -47 -40 -22 -25 -27 -42 -27 -83 l0 -51
313 -314 c284 -285 377 -372 336 -315 -35 49 -98 121 -143 162 -124 116 -460
470 -470 495 -22 57 23 116 87 116 39 0 49 -8 308 -262 148 -145 307 -301 354
-348 47 -47 110 -110 141 -140 72 -71 201 -202 263 -265 26 -27 85 -83 131
-124 76 -68 85 -73 117 -68 41 7 62 31 63 69 0 30 -74 122 -188 232 -214 206
-338 337 -346 363 -9 29 17 88 44 103 49 26 81 15 159 -57 76 -71 193 -186
272 -270 25 -26 81 -79 124 -118 43 -38 93 -92 111 -120 18 -27 49 -68 69 -90
71 -79 108 -179 126 -343 10 -98 10 -143 1 -220 -7 -53 -10 -107 -8 -119 11
-52 49 -118 101 -172 30 -32 55 -63 55 -69 0 -11 -633 -644 -651 -650 -5 -2
-48 32 -95 77 -97 92 -109 97 -265 105 -134 8 -301 53 -376 103 -47 31 -1053
1030 -1088 1079 -8 12 -58 65 -110 118 -92 92 -95 97 -95 140 0 55 32 86 90
86 33 0 47 -9 115 -72 42 -40 84 -77 92 -81 38 -22 504 -499 535 -547 39 -62
466 -490 502 -504 17 -7 30 -4 47 8 13 9 124 116 247 239 260 259 277 284 276
407 0 86 -28 154 -89 214 -59 59 -117 81 -215 81 -96 0 -139 -17 -211 -82
l-40 -36 -32 30 c-18 17 -54 43 -82 59 -45 26 -59 29 -140 29 -110 -1 -155
-21 -231 -102 l-51 -55 -89 97 c-49 53 -100 107 -114 118 -32 28 -159 156
-333 336 -132 137 -137 143 -137 185 0 62 36 91 109 87 17 -1 65 -41 155 -131
72 -71 149 -142 171 -158 22 -16 63 -55 90 -86 91 -106 260 -264 270 -254 7 6
-641 651 -662 660 -99 39 -209 -73 -162 -165 12 -23 709 -727 720 -727 4 0 12
14 19 30 7 17 35 51 62 75 110 99 256 98 366 -1 28 -24 54 -54 57 -64 9 -28
17 -25 43 18 32 50 75 83 136 104 64 22 110 22 175 1 111 -36 191 -143 191
-259 0 -125 -6 -133 -278 -401 -135 -134 -249 -243 -255 -243 -16 0 -468 454
-493 495 -13 22 -178 194 -367 383 -317 317 -347 344 -384 349 -98 13 -174
-90 -129 -175 8 -15 300 -311 648 -657 458 -457 649 -640 690 -663 110 -65
253 -102 393 -102 95 -1 133 -20 235 -124 l85 -86 356 356 356 356 -67 67
c-113 111 -118 129 -105 356 5 88 3 138 -7 187 l-14 67 84 83 c46 46 91 98 98
116 20 44 9 96 -27 132 -35 34 -78 45 -122 31 -38 -13 -140 -111 -115 -111 8
0 22 8 29 17 30 35 93 73 123 73 51 -1 96 -49 96 -104 0 -18 -21 -48 -69 -98
-37 -40 -75 -86 -83 -102 l-15 -29 -18 54 c-26 80 -77 178 -126 239 -23 30
-143 157 -268 283 -124 125 -219 227 -212 227 8 0 73 59 146 130 73 72 134
130 136 130 2 0 18 4 35 9 59 17 114 -30 114 -97 0 -37 -1 -37 -144 -181 -114
-116 -142 -151 -118 -151 18 0 281 277 287 303 20 78 -40 157 -118 157 -23 0
-54 -8 -68 -18 -14 -9 -86 -77 -159 -150 -128 -129 -133 -133 -147 -112 -8 11
-37 39 -65 60 -42 34 -57 40 -98 40 -41 0 -53 -5 -79 -30 -35 -35 -47 -83 -32
-123 14 -37 15 -36 -14 -47 -27 -10 -43 -36 -30 -48 4 -4 19 7 33 24 l27 32
263 -258 c144 -141 262 -265 262 -274 0 -20 -43 -66 -62 -66 -12 0 -162 147
-876 862 -190 191 -361 355 -378 363 -35 16 -68 18 -100 5z"/>
<path d="M2000 2873 c-24 -5 -460 -426 -481 -465 -28 -52 36 3 240 206 170
168 234 225 258 231 67 14 131 -53 112 -118 -5 -18 -51 -73 -109 -132 -89 -91
-115 -125 -94 -125 13 0 206 195 220 222 28 54 6 141 -43 166 -25 13 -74 20
-103 15z"/>
<path d="M498 2694 c-50 -27 -73 -105 -47 -157 6 -12 164 -176 351 -363 l341
-342 -20 -28 c-11 -16 -28 -45 -38 -64 l-18 -35 23 20 c25 22 60 86 60 109 0
27 -112 152 -211 236 -36 30 -81 75 -100 99 -19 24 -107 117 -196 207 -176
179 -189 200 -156 257 22 37 58 53 98 43 17 -4 92 -70 195 -169 91 -89 197
-189 234 -221 38 -33 84 -81 103 -108 31 -42 172 -168 189 -168 4 0 -12 20
-35 45 -40 43 -45 65 -17 65 15 0 56 42 56 58 0 22 -18 12 -54 -29 l-35 -42
-41 41 -42 41 36 36 c20 20 36 45 36 57 0 20 -1 20 -19 4 -11 -10 -27 -33 -36
-52 -13 -28 -19 -32 -33 -25 -32 18 -147 143 -135 148 23 8 95 65 90 70 -11
10 -51 -10 -79 -40 l-28 -31 -178 177 c-178 177 -178 177 -223 177 -24 -1 -56
-7 -71 -16z"/>
<path d="M2535 2311 c-45 -28 -232 -221 -215 -221 9 0 56 41 105 91 122 123
155 138 216 102 33 -20 52 -64 43 -102 -4 -14 -51 -71 -105 -127 -55 -56 -99
-110 -99 -120 0 -25 207 180 227 225 25 58 -2 127 -62 155 -43 21 -73 20 -110
-3z"/>
<path d="M742 2137 c-34 -35 -39 -47 -21 -47 14 0 69 55 69 69 0 19 -15 12
-48 -22z"/>
<path d="M1804 2143 c-13 -14 -22 -28 -20 -30 8 -8 45 17 56 37 16 30 -6 26
-36 -7z"/>
<path d="M1383 2060 c-47 -27 -74 -50 -58 -50 12 0 93 51 105 65 17 21 12 19
-47 -15z"/>
<path d="M901 1984 c-40 -33 -44 -65 -4 -34 32 25 58 60 44 60 -5 0 -23 -12
-40 -26z"/>
<path d="M1970 1990 c-21 -21 -26 -40 -12 -40 10 0 52 43 52 53 0 13 -20 7
-40 -13z"/>
<path d="M992 1887 c-34 -35 -39 -47 -21 -47 14 0 69 55 69 69 0 19 -15 12
-48 -22z"/>
<path d="M465 1858 c-22 -27 -31 -44 -24 -47 15 -5 69 53 69 74 0 22 -5 19
-45 -27z"/>
<path d="M2085 1870 c-31 -33 -21 -41 15 -12 13 10 21 24 19 31 -3 7 -15 0
-34 -19z"/>
<path d="M650 1695 c0 -45 69 -90 97 -62 13 13 12 14 -10 10 -29 -6 -67 26
-67 57 0 11 -4 20 -10 20 -5 0 -10 -11 -10 -25z"/>
<path d="M281 1523 c-29 -109 -33 -151 -27 -277 13 -232 11 -238 -103 -351
l-71 -70 356 -356 356 -356 77 80 c97 102 146 127 253 127 133 0 334 53 370
98 11 13 11 15 -2 10 -155 -58 -207 -70 -328 -77 -158 -10 -193 -24 -287 -120
-38 -39 -75 -71 -82 -71 -15 0 -663 645 -663 660 0 6 24 37 53 68 30 31 64 75
77 97 26 43 29 77 18 255 -3 52 -2 118 3 145 13 76 22 175 15 175 -3 0 -10
-17 -15 -37z"/>
</g>
</svg>
